<svg width="400" height="400" viewBox="0 0 400 400" xmlns="http://www.w3.org/2000/svg">
  <!-- 背景 -->
  <circle cx="200" cy="200" r="190" fill="#ffffff"/>
  <circle cx="200" cy="200" r="185" fill="#f5f7fa"/>
  
  <!-- 外环 -->
  <circle cx="200" cy="200" r="180" fill="none" stroke="#1a73e8" stroke-width="6"/>
  
  <!-- 内部装饰 - 同心圆 -->
  <circle cx="200" cy="200" r="165" fill="none" stroke="#e8eaed" stroke-width="8"/>
  
  <!-- 几何元素 - 正六边形 -->
  <polygon points="200,100 260,130 260,190 200,220 140,190 140,130" 
           fill="none" stroke="#5f6368" stroke-width="3"/>
  
  <!-- 中心图形 - 抽象数学符号组合 -->
  <g transform="translate(200,200) scale(1.2)">
    <!-- 积分符号 -->
    <path d="M-40,-40 C-20,-50 -20,-10 -30,10 C-40,30 -30,50 -10,40" 
          stroke="#4285f4" stroke-width="6" stroke-linecap="round" fill="none"/>
    
    <!-- 无穷符号 -->
    <path d="M-10,0 C0,-15 15,-15 25,0 C35,15 50,15 60,0 M25,0 C15,15 0,15 -10,0" 
          stroke="#4285f4" stroke-width="6" stroke-linecap="round" fill="none"/>
    
    <!-- 函数图像 -->
    <path d="M-60,-10 Q-30,40 0,-10 Q30,-60 60,-10" 
          stroke="#ea4335" stroke-width="4" stroke-linecap="round" fill="none"/>
  </g>
  
  <!-- 装饰点 -->
  <circle cx="200" cy="100" r="5" fill="#fbbc04"/>
  <circle cx="280" cy="150" r="5" fill="#fbbc04"/>
  <circle cx="280" cy="250" r="5" fill="#fbbc04"/>
  <circle cx="200" cy="300" r="5" fill="#fbbc04"/>
  <circle cx="120" cy="250" r="5" fill="#fbbc04"/>
  <circle cx="120" cy="150" r="5" fill="#fbbc04"/>
  
  <!-- 文字路径 -->
  <path id="textPath" d="M200,60 A140,140 0 0,1 340,200 A140,140 0 0,1 200,340 A140,140 0 0,1 60,200 A140,140 0 0,1 200,60" fill="none"/>
  
  <!-- 文字 -->
  <text font-family="'Segoe UI', Arial, sans-serif" font-size="18" font-weight="500" fill="#202124" letter-spacing="1">
    <textPath href="#textPath" startOffset="12%">COMMONWEALTH OF MATHEMATICS</textPath>
  </text>
  
  <!-- 微妙的阴影效果 -->
  <filter id="dropShadow" x="-20%" y="-20%" width="140%" height="140%">
    <feGaussianBlur in="SourceAlpha" stdDeviation="2"/>
    <feOffset dx="0" dy="2"/>
    <feComponentTransfer>
      <feFuncA type="linear" slope="0.1"/>
    </feComponentTransfer>
    <feMerge>
      <feMergeNode/>
      <feMergeNode in="SourceGraphic"/>
    </feMerge>
  </filter>
  
  <!-- 应用阴影 -->
  <g filter="url(#dropShadow)">
    <circle cx="200" cy="200" r="180" fill="none" stroke="#1a73e8" stroke-width="6"/>
  </g>
</svg>